<?xml version="1.0" encoding="utf-8"?>
<!-- Generator: Adobe Illustrator 19.0.0, SVG Export Plug-In . SVG Version: 6.00 Build 0)  -->
<svg version="1.1" id="Layer_1" xmlns="http://www.w3.org/2000/svg" xmlns:xlink="http://www.w3.org/1999/xlink" x="0px" y="0px"
	 viewBox="0 83 1920 915" style="enable-background:new 0 83 1920 915;" xml:space="preserve">
<style type="text/css">
	.st0{opacity:0.66;fill:#EFF1F8;}
	.st1{fill:#EFF1F8;}
</style>
<path class="st0" d="M1920,998H0c0.5-25.5,1-51,1.5-76.5c13.7,0.8,38.7,1.8,69.6-0.4C268.6,906.7,356,785.9,498.6,814.6
	c21.3,4.3,14.4,6,69,25.5c90.1,32.2,231.3,80.8,394.5,78c61.2-1,189.9-3.2,324-58.5c32-13.2,76.8-34.6,141-36
	c74.3-1.7,129.3,24.5,159,37.5c69.8,30.7,176.1,66.8,331.9,85.9C1918.7,964,1919.3,981,1920,998z"/>
<path id="XMLID_2_" class="st1" d="M1971,1211"/>
<path id="XMLID_3_" class="st1" d="M1921.8,1186.8"/>
<path id="XMLID_4_" class="st1" d="M1984,1056"/>
<path id="XMLID_1_" class="st1" d="M1920,998H0c-0.2-37.7-0.4-75.3-0.7-113c80-35.7,143.8-40.4,186-38.7
	c132.3,5.4,244.5,81.8,328.3,76.2c57.1-3.8,124.6-11.4,124.6-11.4c1.9-0.2,2.8-0.3,3.7-0.4c63.9-7.5,89.6-22.8,162.1-37.8
	c0,0,75.2-15.5,148.7-17.3c157.5-3.9,208.9,59.5,403.7,72.4c51.2,3.4,83.6,0.3,113.7-5.9c51.7-10.6,69.2-25.8,130.6-43.8
	c14.1-4.2,65.2-18.9,120.7-23.3c41.7-3.3,111.6-2.8,198.7,28.3C1920,921.5,1920,959.8,1920,998z"/>
</svg>
